<?xml version="1.0" encoding="UTF-8"?>
<svg version="1.1" xmlns="http://www.w3.org/2000/svg" width="238" height="232">
<path d="M0 0 C78.54 0 157.08 0 238 0 C238 76.23 238 152.46 238 231 C159.46 231 80.92 231 0 231 C0 154.77 0 78.54 0 0 Z " fill="#FDFEFE" transform="translate(0,0)"/>
<path d="M0 0 C6.30899929 3.95117175 12.22716411 8.36775541 18.08569336 12.94921875 C28.60984394 21.81401759 28.60984394 21.81401759 41.5859375 24.51953125 C51.71797623 22.33901159 59.64339388 15.46817662 67.50561523 9.11474609 C77.13840536 1.33445677 85.88472596 -4.75977793 98.71484375 -4.40625 C106.74571818 -3.41313354 112.53665172 0.58493812 117.53125 6.81640625 C126.87488091 20.70760221 125.73253516 40.45852377 122.8125 56.3125 C118.65008723 73.44391183 109.75146081 87.34043571 94.84765625 97.0546875 C83.45751046 103.76091308 71.47147703 109.32862782 59.13598633 114.05078125 C51.20539798 117.09462288 44.08490795 119.84687559 38 126 C37.38382812 126.59167969 36.76765625 127.18335938 36.1328125 127.79296875 C28.60466205 135.62806095 24.99648169 145.52364944 21.7578125 155.68676758 C17.78971604 168.05969173 17.78971604 168.05969173 13 172 C8.60493721 172.16904088 5.83745328 171.27367877 2.625 168.375 C-2.59233211 162.65465156 -6.26527809 155.73525299 -10 149 C-10.87978516 147.42992187 -10.87978516 147.42992187 -11.77734375 145.828125 C-30.61012738 110.20092962 -48.59315881 57.90292254 -39.875 17.0625 C-37.08636227 8.13096688 -31.98098021 1.7346558 -23.8125 -2.75 C-15.5679279 -5.98001634 -7.54249641 -4.06724733 0 0 Z " fill="#263670" transform="translate(77,30)"/>
<path d="M0 0 C0.66 0.33 1.32 0.66 2 1 C0.02 3.97 0.02 3.97 -2 7 C-1.37609375 7.08765625 -0.7521875 7.1753125 -0.109375 7.265625 C2 8 2 8 3.046875 9.671875 C5.67411402 17.43682589 5.67411402 17.43682589 5 21 C3.1875 23.8125 3.1875 23.8125 1 26 C0.01 26 -0.98 26 -2 26 C-1.505 30.95 -1.505 30.95 -1 36 C-9.14312666 42.107345 -17.11277562 42.28586848 -27 42.125 C-28.06089844 42.11597656 -29.12179688 42.10695312 -30.21484375 42.09765625 C-32.81013638 42.07427524 -35.40494465 42.04150556 -38 42 C-33.80959013 39.20639342 -29.49497397 39.28742059 -24.59960938 38.87695312 C-19.28650047 38.35458369 -14.93502829 37.0511386 -10 35 C-10.495 32.03 -10.495 32.03 -11 29 C-21.56 29 -32.12 29 -43 29 C-42.01 27.68 -41.02 26.36 -40 25 C-39.67 24.01 -39.34 23.02 -39 22 C-39.66 21.67 -40.32 21.34 -41 21 C-40.4423999 20.76925781 -39.8847998 20.53851563 -39.31030273 20.30078125 C-18.55430329 12.10324607 -18.55430329 12.10324607 0 0 Z " fill="#F0F6F7" transform="translate(177,122)"/>
<path d="M0 0 C0.66 0.33 1.32 0.66 2 1 C2.79670903 8.48906486 -0.41262989 13.18562964 -4.515625 19.234375 C-6 21 -6 21 -8.4375 21.5625 C-12.89114605 20.58487038 -14.34571818 16.98142273 -16.75 13.375 C-18 11 -18 11 -18 8 C-16.86820313 7.75765625 -15.73640625 7.5153125 -14.5703125 7.265625 C-13.08834148 6.92796072 -11.60658117 6.58937073 -10.125 6.25 C-9.37863281 6.09273437 -8.63226563 5.93546875 -7.86328125 5.7734375 C-3.53740629 4.84606168 -3.53740629 4.84606168 -0.4921875 1.859375 C-0.32976562 1.24578125 -0.16734375 0.6321875 0 0 Z " fill="#0E89C7" transform="translate(163,181)"/>
<path d="M0 0 C0.66 0 1.32 0 2 0 C4.22779673 2.81750763 5.80464369 5.08833723 6.5625 8.625 C6 11 6 11 4.25 13.125 C-7.39318642 19.84222293 -21.02959202 18.32145775 -34 18 C-34 17.67 -34 17.34 -34 17 C-32.88882813 16.81824219 -31.77765625 16.63648438 -30.6328125 16.44921875 C-14.96914802 14.67797276 -14.96914802 14.67797276 -2 7 C-0.64164329 3.37526891 -0.64164329 3.37526891 0 0 Z " fill="#178CC6" transform="translate(176,132)"/>
<path d="M0 0 C0.66 0 1.32 0 2 0 C4.15827162 3.23740742 4.73320331 4.24233303 4 8 C-3.51109116 14.57220477 -12.58258769 14.27822448 -22 14.125 C-23.06089844 14.11597656 -24.12179688 14.10695312 -25.21484375 14.09765625 C-27.81013638 14.07427524 -30.40494465 14.04150556 -33 14 C-29.33713697 11.55809131 -26.19181406 11.48710839 -21.9375 11.125 C-11.99714936 10.11432527 -11.99714936 10.11432527 -3 6 C-0.80801296 2.96414938 -0.80801296 2.96414938 0 0 Z " fill="#1D8CC4" transform="translate(172,150)"/>
<path d="M0 0 C-1.32 0.33 -2.64 0.66 -4 1 C-4.33 2.32 -4.66 3.64 -5 5 C-5 4.34 -5 3.68 -5 3 C-5.66 3 -6.32 3 -7 3 C-7.103125 3.78375 -7.20625 4.5675 -7.3125 5.375 C-8 8 -8 8 -11 10 C-11.66 8.02 -12.32 6.04 -13 4 C-23.56 4 -34.12 4 -45 4 C-44.67 3.34 -44.34 2.68 -44 2 C-43.15405273 2.01571045 -42.30810547 2.0314209 -41.43652344 2.04760742 C-38.23830516 2.09933945 -35.04030309 2.13663906 -31.84179688 2.16479492 C-30.46867774 2.17969923 -29.09560461 2.20002997 -27.72265625 2.22631836 C-19.4823653 2.37992027 -12.17937049 1.95769343 -4.26660156 -0.44799805 C-2 -1 -2 -1 0 0 Z " fill="#B0D7E5" transform="translate(179,147)"/>
<path d="M0 0 C0.66 0.33 1.32 0.66 2 1 C0.02 1.99 0.02 1.99 -2 3 C-0.68 3.66 0.64 4.32 2 5 C-1.57350041 5.81898622 -4.85659479 6.11811958 -8.51953125 6.09765625 C-9.54111328 6.09443359 -10.56269531 6.09121094 -11.61523438 6.08789062 C-12.67033203 6.07951172 -13.72542969 6.07113281 -14.8125 6.0625 C-15.88693359 6.05798828 -16.96136719 6.05347656 -18.06835938 6.04882812 C-20.71229683 6.03707729 -23.35611952 6.02064787 -26 6 C-22.29656773 3.53104516 -18.99758595 3.39548792 -14.6875 3 C-9.46460206 2.51331063 -4.99573474 1.69295701 0 0 Z " fill="#63ABCE" transform="translate(165,158)"/>
<path d="M0 0 C3.03485136 4.55227704 3.125242 8.57780978 3.09765625 13.95703125 C3.09443359 15.06884766 3.09121094 16.18066406 3.08789062 17.32617188 C3.07951172 18.47666016 3.07113281 19.62714844 3.0625 20.8125 C3.05798828 21.98232422 3.05347656 23.15214844 3.04882812 24.35742188 C3.0370693 27.23833358 3.02063426 30.11914044 3 33 C2.01 33.495 2.01 33.495 1 34 C0.67 22.78 0.34 11.56 0 0 Z " fill="#303B6E" transform="translate(198,45)"/>
<path d="M0 0 C0.99 0.66 1.98 1.32 3 2 C3.1875 4.625 3.1875 4.625 3 7 C-3.31715405 10.44572039 -8.90370975 10.31461385 -16 10 C-16 9.67 -16 9.34 -16 9 C-15.25234375 8.81824219 -14.5046875 8.63648438 -13.734375 8.44921875 C-12.25710937 8.07216797 -12.25710937 8.07216797 -10.75 7.6875 C-9.77546875 7.44386719 -8.8009375 7.20023438 -7.796875 6.94921875 C-4.96196806 5.98709251 -3.18529269 5.02991638 -1 3 C-0.67 2.01 -0.34 1.02 0 0 Z " fill="#2992C7" transform="translate(168,166)"/>
<path d="M0 0 C-1.32 0.99 -2.64 1.98 -4 3 C-3.67 3.66 -3.34 4.32 -3 5 C-10.59 5 -18.18 5 -26 5 C-26 4.67 -26 4.34 -26 4 C-24.85402344 3.80664062 -23.70804688 3.61328125 -22.52734375 3.4140625 C-20.99736117 3.15124341 -19.46741518 2.88821121 -17.9375 2.625 C-17.18533203 2.49867188 -16.43316406 2.37234375 -15.65820312 2.2421875 C-12.0507748 1.61752459 -8.56721671 0.91604236 -5.06640625 -0.1640625 C-2 -1 -2 -1 0 0 Z " fill="#2792C8" transform="translate(168,145)"/>
<path d="M0 0 C0.33 1.32 0.66 2.64 1 4 C0.34 4 -0.32 4 -1 4 C-1.66 5.32 -2.32 6.64 -3 8 C-4.98 8 -6.96 8 -9 8 C-9 8.66 -9 9.32 -9 10 C-9.99 9.67 -10.98 9.34 -12 9 C-12.33 6.69 -12.66 4.38 -13 2 C-12.1646875 2.9590625 -12.1646875 2.9590625 -11.3125 3.9375 C-8.77933439 6.19680987 -7.31658576 6.63149047 -4 7 C-3.71125 6.401875 -3.4225 5.80375 -3.125 5.1875 C-2 3 -2 3 0 0 Z " fill="#E1F2F4" transform="translate(161,195)"/>
<path d="M0 0 C5.78591511 -0.10477512 11.29309366 0.00749455 17 1 C17 1.33 17 1.66 17 2 C13.32612505 2.85298376 9.9552607 3.10789471 6.1875 3.0625 C5.21167969 3.05347656 4.23585937 3.04445312 3.23046875 3.03515625 C2.49441406 3.02355469 1.75835937 3.01195312 1 3 C0.67 2.01 0.34 1.02 0 0 Z " fill="#BCDDEB" transform="translate(142,175)"/>
<path d="M0 0 C0.66 0.33 1.32 0.66 2 1 C2.125 4.375 2.125 4.375 2 8 C1.34 8.66 0.68 9.32 0 10 C-0.33 9.01 -0.66 8.02 -1 7 C-3.64 7 -6.28 7 -9 7 C-9 6.67 -9 6.34 -9 6 C-7.88625 5.7525 -6.7725 5.505 -5.625 5.25 C-1.95384802 4.38994661 -1.95384802 4.38994661 -0.5625 1.875 C-0.376875 1.25625 -0.19125 0.6375 0 0 Z " fill="#3093C4" transform="translate(163,181)"/>
<path d="M0 0 C0.55719727 0.15847412 1.11439453 0.31694824 1.68847656 0.48022461 C4.15877011 1.03570147 6.45553604 1.208468 8.984375 1.31640625 C10.38623047 1.37924805 10.38623047 1.37924805 11.81640625 1.44335938 C12.78449219 1.48267578 13.75257813 1.52199219 14.75 1.5625 C15.73355469 1.60568359 16.71710938 1.64886719 17.73046875 1.69335938 C20.15351275 1.79922052 22.5766554 1.90130171 25 2 C25 2.33 25 2.66 25 3 C17.08 3 9.16 3 1 3 C0.67 2.01 0.34 1.02 0 0 Z " fill="#EEF9FA" transform="translate(131,149)"/>
<path d="M0 0 C3.42724441 5.14086661 3.1015597 10.00797796 3 16 C2.67 16 2.34 16 2 16 C2 14.35 2 12.7 2 11 C1.34 11 0.68 11 0 11 C0 7.37 0 3.74 0 0 Z " fill="#687695" transform="translate(198,45)"/>
<path d="M0 0 C0 0.66 0 1.32 0 2 C-0.99 2.495 -0.99 2.495 -2 3 C-2.65555119 5.52733235 -2.65555119 5.52733235 -3 8 C-3.66 7.67 -4.32 7.34 -5 7 C-5.66 7.66 -6.32 8.32 -7 9 C-7 7.68 -7 6.36 -7 5 C-6.34 4.67 -5.68 4.34 -5 4 C-4.67 3.01 -4.34 2.02 -4 1 C-2 0 -2 0 0 0 Z " fill="#CCE9F1" transform="translate(174,160)"/>
<path d="M0 0 C4.31392226 0.4793247 6.16569547 1.7457985 9 5 C6.36 4.67 3.72 4.34 1 4 C0.67 2.68 0.34 1.36 0 0 Z " fill="#323F6C" transform="translate(77,32)"/>
<path d="M0 0 C0.33 1.32 0.66 2.64 1 4 C0.34 4 -0.32 4 -1 4 C-1.66 5.32 -2.32 6.64 -3 8 C-4.65 8 -6.3 8 -8 8 C-7.38125 7.9175 -6.7625 7.835 -6.125 7.75 C-3.84957521 7.20076457 -3.84957521 7.20076457 -2.875 5.125 C-2.58625 4.42375 -2.2975 3.7225 -2 3 C-1.34 2.01 -0.68 1.02 0 0 Z " fill="#C7E6F1" transform="translate(161,195)"/>
<path d="M0 0 C-0.33 1.32 -0.66 2.64 -1 4 C-3.64 4 -6.28 4 -9 4 C-3 0 -3 0 0 0 Z " fill="#0782C2" transform="translate(169,158)"/>
<path d="M0 0 C0.33 1.32 0.66 2.64 1 4 C0.01 4.495 0.01 4.495 -1 5 C-1.33 5.99 -1.66 6.98 -2 8 C-3.32 7.67 -4.64 7.34 -6 7 C-4.02 4.69 -2.04 2.38 0 0 Z " fill="#2E95C5" transform="translate(175,137)"/>
<path d="M0 0 C2 4 2 4 2 7 C-0.5 8.6875 -0.5 8.6875 -3 10 C-2.01 6.7 -1.02 3.4 0 0 Z " fill="#DCE1E7" transform="translate(98,184)"/>
<path d="M0 0 C1.98 0 3.96 0 6 0 C6.1875 2.875 6.1875 2.875 6 6 C5.01 6.66 4.02 7.32 3 8 C3 6.68 3 5.36 3 4 C3.66 4 4.32 4 5 4 C5 3.01 5 2.02 5 1 C3.35 1 1.7 1 0 1 C0 0.67 0 0.34 0 0 Z " fill="#CFEDF6" transform="translate(165,149)"/>
<path d="M0 0 C-2.25 1.625 -2.25 1.625 -5 3 C-7.3125 2.1875 -7.3125 2.1875 -9 1 C-2.25 -1.125 -2.25 -1.125 0 0 Z M-6 3 C-4.515 3.99 -4.515 3.99 -3 5 C-4.32 4.67 -5.64 4.34 -7 4 C-6.67 3.67 -6.34 3.34 -6 3 Z " fill="#48A7D1" transform="translate(168,145)"/>
<path d="M0 0 C0.66 0.33 1.32 0.66 2 1 C-0.475 4.465 -0.475 4.465 -3 8 C-3.66 6.68 -4.32 5.36 -5 4 C-3.35 2.68 -1.7 1.36 0 0 Z " fill="#E3E7ED" transform="translate(177,122)"/>
<path d="M0 0 C3.36720387 1.39332574 4.9859524 2.9789286 7 6 C4 6 4 6 1.8125 4.125 C0 2 0 2 0 0 Z " fill="#35406F" transform="translate(186,30)"/>
<path d="M0 0 C0.99 0.66 1.98 1.32 3 2 C3.1875 4.625 3.1875 4.625 3 7 C2.67 6.01 2.34 5.02 2 4 C0.35 4.66 -1.3 5.32 -3 6 C-2.01 4.02 -1.02 2.04 0 0 Z " fill="#3C98BF" transform="translate(168,166)"/>
</svg>
